<?xml version="1.0" encoding="utf-8"?>
<!-- Generator: Adobe Illustrator 24.3.0, SVG Export Plug-In . SVG Version: 6.00 Build 0)  -->
<svg version="1.1" xmlns="http://www.w3.org/2000/svg" xmlns:xlink="http://www.w3.org/1999/xlink" x="0px" y="0px"
	 viewBox="0 0 128 128" style="enable-background:new 0 0 128 128;" xml:space="preserve">
<style type="text/css">
	.st0{fill:#E6A329;}
	.st1{fill:#F1BF22;}
	.st2{fill:#FFFFFF;}
	.st3{fill:#EBEBEB;}
</style>
<g id="Layer_1">
	<g id="code_x5F_html5">
	</g>
	<g>
		<polygon class="st0" points="108.48,25.82 64,25.82 64,25.82 19.52,25.82 27.85,116.52 64,126.79 64,126.79 64,126.79 64,126.79 
			64,126.79 100.13,116.52 		"/>
		<polygon class="st1" points="64,33.21 64,119.11 64,119.11 93.27,110.79 100.4,33.21 		"/>
		<polygon class="st2" points="87.29,44.34 42.27,44.34 39.14,78.3 39.2,78.08 77.45,78.08 76.2,92.45 64,95.98 51.61,92.39 
			50.87,83.7 39.63,83.7 41.23,101.07 64,107.56 86.77,101.07 89.9,66.98 49.32,66.98 49.84,55.61 78,55.61 78.42,62.12 
			89.76,62.12 		"/>
		<g>
			<path class="st3" d="M64,44.34H42.27L39.14,78.3l0.07-0.21H64v-11.1H50.88l0.52-11.37H64V44.34z M50.87,83.7H39.63l1.61,17.37
				L64,107.54V95.98l-12.39-3.58L50.87,83.7z"/>
		</g>
		<g>
			<polygon points="55.34,12.44 47.43,12.44 47.43,18.14 55.34,18.14 59.58,18.14 61.01,18.14 61.01,1.21 55.34,1.21 			"/>
			<path d="M80.57,1.29h-13.8c0,0,0,2.98,0,5.93c1.84,1.85,2.81,2.74,5.48,5.42c-1.56,0-5.48,0.01-5.48,0.01v5.41h13.8v-5.41
				l-5.51-5.42h5.51V1.29z"/>
		</g>
	</g>
</g>
<g id="Layer_2">
</g>
</svg>
